<svg width="164" height="173" viewBox="0 0 164 173" fill="none" xmlns="http://www.w3.org/2000/svg">
<path d="M148.005 122.1C148.699 120.823 149.614 119.844 150.749 119.163C151.891 118.502 153.119 118.174 154.434 118.177C155.755 118.201 157.019 118.541 158.228 119.198C159.642 119.967 160.657 120.981 161.271 122.24C161.899 123.506 162.165 124.834 162.068 126.222C161.964 127.624 161.595 128.909 160.961 130.076C160.252 131.381 159.319 132.36 158.164 133.012C157.022 133.673 155.808 133.991 154.522 133.968C153.229 133.959 152.019 133.648 150.893 133.036C149.643 132.357 148.676 131.404 147.991 130.178C147.305 128.951 146.963 127.618 146.963 126.177C146.956 124.75 147.303 123.391 148.005 122.1ZM148.014 123.066C147.484 124.041 147.233 125.043 147.26 126.072C147.288 127.101 147.618 128.081 148.251 129.012C148.883 129.943 149.811 130.74 151.033 131.404C152.324 132.106 153.608 132.475 154.887 132.512C156.172 132.57 157.346 132.292 158.409 131.678C159.465 131.078 160.321 130.173 160.978 128.965C161.844 127.372 162.025 125.861 161.521 124.431C161.018 123.001 159.914 121.823 158.212 120.897C156.935 120.203 155.626 119.812 154.286 119.724C152.953 119.658 151.731 119.91 150.62 120.48C149.51 121.05 148.641 121.912 148.014 123.066Z" fill="black"/>
<path d="M140.228 133.863C140.855 133.083 141.554 132.563 142.326 132.301C143.101 132.061 143.865 132.034 144.619 132.219C145.372 132.404 146.054 132.741 146.663 133.231C147.442 133.858 147.966 134.59 148.235 135.428C148.507 136.288 148.554 137.139 148.379 137.98C148.206 138.844 147.865 139.593 147.356 140.226C146.934 140.75 146.449 141.141 145.899 141.401C145.339 141.673 144.919 141.697 144.639 141.471C144.493 141.354 144.404 141.202 144.373 141.017C144.354 140.841 144.408 140.674 144.536 140.515C144.761 140.235 145.127 140.129 145.635 140.196C145.993 140.224 146.316 140.172 146.602 140.041C146.89 139.932 147.176 139.701 147.46 139.347C148.048 138.617 148.235 137.835 148.023 137.002C147.812 136.191 147.256 135.423 146.355 134.698C145.332 133.876 144.269 133.452 143.166 133.427C142.075 133.412 141.113 133.922 140.28 134.958C139.653 135.737 139.362 136.536 139.407 137.354L139.377 137.39C139.348 137.427 139.305 137.443 139.249 137.438C139.183 137.445 139.152 137.42 139.157 137.364C139.125 136.656 139.195 136.021 139.367 135.457C139.54 134.894 139.827 134.362 140.228 133.863Z" fill="black"/>
<path d="M125.331 148.979C125.296 149.01 125.247 148.99 125.186 148.918C125.125 148.847 125.112 148.796 125.148 148.766C125.42 148.532 125.639 148.354 125.803 148.233L126.76 147.441L127.67 146.628C127.825 146.474 128.039 146.28 128.312 146.045C128.336 146.025 128.378 146.05 128.439 146.121C128.5 146.192 128.519 146.238 128.495 146.258C128.152 146.554 127.928 146.798 127.825 146.989C127.71 147.191 127.695 147.401 127.778 147.617C127.871 147.846 128.071 148.138 128.377 148.494L130.868 151.391C131.49 152.114 132.079 152.536 132.635 152.655C133.179 152.785 133.724 152.615 134.269 152.146C134.637 151.831 134.919 151.392 135.117 150.83C135.312 150.291 135.402 149.688 135.386 149.022C135.323 148.973 135.225 148.871 135.093 148.717L132.128 145.269C131.822 144.913 131.563 144.672 131.351 144.545C131.149 144.43 130.946 144.409 130.741 144.483C130.524 144.566 130.243 144.755 129.9 145.051C129.876 145.071 129.834 145.046 129.772 144.975C129.711 144.904 129.693 144.858 129.716 144.838C129.989 144.603 130.213 144.421 130.389 144.29L131.329 143.513L132.256 142.685C132.4 142.541 132.608 142.351 132.881 142.117C132.916 142.086 132.964 142.107 133.026 142.178C133.087 142.249 133.1 142.3 133.064 142.33C132.72 142.626 132.497 142.869 132.394 143.061C132.291 143.253 132.281 143.457 132.364 143.674C132.458 143.903 132.657 144.195 132.963 144.55L135.455 147.448C136.076 148.171 136.665 148.592 137.221 148.711C137.766 148.841 138.305 148.677 138.838 148.218C139.205 147.902 139.487 147.475 139.683 146.935C139.878 146.396 139.968 145.793 139.952 145.127L136.696 141.34C136.391 140.985 136.138 140.739 135.937 140.602C135.735 140.487 135.532 140.466 135.327 140.539C135.11 140.622 134.83 140.812 134.486 141.107C134.451 141.138 134.402 141.118 134.341 141.047C134.28 140.975 134.267 140.925 134.303 140.894C134.575 140.66 134.794 140.482 134.958 140.362L135.898 139.585L136.824 138.757C136.968 138.612 137.177 138.423 137.449 138.189C137.485 138.158 137.533 138.178 137.594 138.249C137.655 138.321 137.668 138.371 137.633 138.402C137.289 138.697 137.065 138.941 136.962 139.133C136.859 139.325 136.849 139.529 136.933 139.746C137.026 139.974 137.226 140.267 137.532 140.622L140.589 144.177C140.945 144.592 141.248 144.848 141.495 144.944C141.743 145.04 141.985 144.986 142.222 144.783C142.412 144.619 142.667 144.245 142.988 143.66L143.024 143.629C143.071 143.589 143.127 143.582 143.192 143.609C143.255 143.658 143.272 143.715 143.245 143.779L142.067 146.4C142.054 146.432 142.029 146.464 141.993 146.494C141.899 146.576 141.675 146.531 141.322 146.361C140.979 146.202 140.63 145.915 140.273 145.5L140.212 145.429C140.232 146.339 140.13 147.096 139.908 147.7C139.685 148.304 139.342 148.805 138.88 149.202C138.347 149.661 137.803 149.891 137.249 149.894C136.693 149.918 136.149 149.706 135.618 149.256C135.646 150.2 135.548 150.985 135.324 151.611C135.099 152.237 134.756 152.748 134.294 153.146C133.666 153.686 133.033 153.921 132.395 153.851C131.758 153.78 131.128 153.384 130.507 152.661L127.541 149.212C127.236 148.857 126.983 148.61 126.782 148.473C126.581 148.358 126.377 148.338 126.172 148.411C125.955 148.494 125.675 148.684 125.331 148.979Z" fill="black"/>
<path d="M115.78 155.454C115.726 155.485 115.673 155.471 115.62 155.411C115.576 155.365 115.576 155.319 115.623 155.274L117.257 152.898L117.326 152.831C117.448 152.761 117.674 152.856 118.005 153.116C118.33 153.398 118.633 153.783 118.914 154.27C119.089 153.448 119.353 152.718 119.708 152.08C120.048 151.451 120.537 150.953 121.173 150.586C121.999 150.11 122.862 150.009 123.76 150.285C124.667 150.574 125.432 151.261 126.057 152.344C126.619 153.319 126.88 154.305 126.842 155.301C126.811 156.311 126.563 157.212 126.099 158.003C125.621 158.801 125.05 159.392 124.387 159.774C124.021 159.985 123.634 160.127 123.225 160.2C122.811 160.295 122.414 160.326 122.034 160.292C121.887 160.539 121.826 160.809 121.851 161.101C121.845 161.123 121.811 161.142 121.749 161.16C121.695 161.191 121.66 161.193 121.644 161.166L118.295 155.357C118.03 154.897 117.781 154.59 117.547 154.435C117.308 154.302 117.054 154.314 116.783 154.47C116.647 154.548 116.501 154.669 116.342 154.833C116.178 155.017 116.004 155.217 115.821 155.431L115.78 155.454ZM120.912 151.494C120.059 151.986 119.455 153.02 119.101 154.595L121.443 158.657C121.724 159.145 122.188 159.418 122.836 159.478C123.491 159.551 124.104 159.424 124.672 159.096C125.498 158.619 125.964 157.864 126.071 156.828C126.172 155.814 125.89 154.731 125.227 153.58C124.641 152.565 123.955 151.86 123.169 151.465C122.382 151.071 121.63 151.08 120.912 151.494Z" fill="black"/>
<path d="M113.924 164.512C113.191 164.744 112.463 164.78 111.739 164.621C111.015 164.461 110.364 164.128 109.785 163.622C109.207 163.116 108.754 162.465 108.429 161.669C108.103 160.873 107.967 160.085 108.018 159.304C108.07 158.523 108.327 157.81 108.79 157.165C109.258 156.534 109.926 156.041 110.794 155.686C111.719 155.307 112.559 155.234 113.313 155.466C114.072 155.712 114.799 156.293 115.494 157.207C116.19 158.122 116.883 159.425 117.576 161.118C119.026 164.662 119.515 167.24 119.043 168.851C118.577 170.478 117.7 171.554 116.413 172.081C114.692 172.785 113.494 172.313 112.819 170.664C112.416 169.68 112.328 168.619 112.554 167.479C112.78 166.339 113.237 165.351 113.924 164.512ZM116.757 171.56C118.768 170.737 118.85 167.884 117.003 162.999C116.809 163.061 116.517 163.172 116.126 163.332C115.273 163.682 114.589 164.198 114.075 164.881C113.567 165.579 113.264 166.344 113.166 167.178C113.074 168.026 113.187 168.841 113.507 169.622C113.839 170.432 114.292 171.024 114.866 171.396C115.433 171.79 116.063 171.844 116.757 171.56ZM110.376 156.338C109.508 156.693 108.967 157.227 108.752 157.94C108.537 158.653 108.643 159.53 109.069 160.571C109.655 162.003 110.549 162.929 111.751 163.349C112.953 163.769 114.357 163.651 115.962 162.994C116.353 162.834 116.647 162.706 116.843 162.608L116.648 162.131C115.902 160.308 115.19 158.919 114.512 157.964C113.84 157.023 113.177 156.433 112.522 156.195C111.858 155.976 111.143 156.024 110.376 156.338Z" fill="black"/>
<path d="M96.1744 161.817C96.1139 161.833 96.0662 161.805 96.0315 161.733C95.9855 161.681 95.9889 161.631 96.0416 161.585L98.2772 159.746L98.3621 159.7C98.4983 159.665 98.6851 159.794 98.9227 160.087C99.1491 160.4 99.331 160.821 99.4683 161.35L99.5213 161.555C99.9611 160.698 100.442 160.032 100.965 159.558C101.492 159.098 102.073 158.786 102.708 158.621C103.45 158.429 104.093 158.512 104.638 158.871C105.168 159.234 105.551 159.87 105.786 160.778L106.699 164.295C106.86 164.915 107.026 165.34 107.199 165.57C107.36 165.819 107.562 165.912 107.804 165.849C108.031 165.79 108.284 165.644 108.562 165.41L108.608 165.399C108.668 165.383 108.723 165.409 108.773 165.477C108.808 165.548 108.797 165.6 108.74 165.631L106.634 167.315L106.549 167.361C106.519 167.369 106.477 167.364 106.424 167.345C106.371 167.327 106.338 167.295 106.327 167.25L104.896 161.735C104.661 160.827 104.328 160.195 103.896 159.839C103.465 159.483 102.931 159.387 102.296 159.552C101.766 159.689 101.264 159.964 100.79 160.378C100.32 160.807 99.9306 161.327 99.6214 161.941L100.64 165.867C100.8 166.487 100.967 166.912 101.14 167.142C101.301 167.39 101.51 167.481 101.768 167.415C101.995 167.356 102.247 167.21 102.526 166.976L102.571 166.964C102.632 166.948 102.679 166.976 102.714 167.048C102.749 167.12 102.738 167.171 102.681 167.202L100.575 168.887L100.513 168.927C100.467 168.939 100.426 168.933 100.388 168.911C100.334 168.892 100.302 168.86 100.29 168.815L98.6245 162.393C98.4911 161.878 98.3325 161.516 98.1487 161.305C97.9537 161.114 97.7049 161.057 97.4023 161.135C97.251 161.175 97.0773 161.252 96.8812 161.368C96.6739 161.502 96.4534 161.648 96.2198 161.805L96.1744 161.817Z" fill="black"/>
<path d="M79.5645 162.162C79.5177 162.165 79.4912 162.12 79.485 162.026C79.4788 161.933 79.4991 161.884 79.5459 161.881C79.9046 161.858 80.1858 161.847 80.3896 161.849L81.631 161.79L82.8458 161.686C83.0631 161.656 83.3511 161.629 83.7098 161.605C83.741 161.603 83.7597 161.649 83.7659 161.743C83.7721 161.836 83.7596 161.884 83.7284 161.886C83.2762 161.916 82.9513 161.977 82.7537 162.068C82.5405 162.161 82.4022 162.319 82.3387 162.542C82.2762 162.781 82.2605 163.135 82.2915 163.603L82.5442 167.416C82.6072 168.367 82.8253 169.057 83.1983 169.487C83.5558 169.917 84.0933 170.109 84.8106 170.061C85.2941 170.029 85.7833 169.848 86.2783 169.518C86.7588 169.204 87.1925 168.776 87.5795 168.233C87.5587 168.156 87.5416 168.016 87.5282 167.814L87.2274 163.275C87.1964 162.808 87.1341 162.459 87.0407 162.23C86.9482 162.017 86.798 161.878 86.5901 161.814C86.3666 161.75 86.0287 161.734 85.5765 161.764C85.5453 161.766 85.5266 161.72 85.5204 161.626C85.5142 161.533 85.5267 161.485 85.5579 161.483C85.9166 161.459 86.2056 161.448 86.425 161.449L87.6429 161.392L88.8812 161.286C89.0829 161.257 89.3631 161.231 89.7218 161.207C89.7686 161.204 89.7951 161.249 89.8013 161.343C89.8075 161.436 89.7872 161.485 89.7404 161.488C89.2882 161.518 88.9633 161.578 88.7657 161.67C88.5681 161.761 88.4376 161.919 88.3741 162.142C88.3116 162.381 88.2959 162.735 88.3269 163.203L88.5796 167.016C88.6426 167.967 88.8607 168.657 89.2337 169.087C89.5912 169.517 90.1209 169.709 90.8226 169.663C91.3061 169.631 91.7881 169.458 92.2685 169.144C92.7489 168.83 93.1826 168.402 93.5696 167.86L93.2394 162.877C93.2084 162.409 93.1539 162.06 93.076 161.83C92.9836 161.617 92.8334 161.478 92.6255 161.414C92.402 161.35 92.0641 161.334 91.6119 161.364C91.5651 161.367 91.5386 161.321 91.5324 161.228C91.5262 161.134 91.5465 161.086 91.5933 161.083C91.952 161.059 92.2332 161.048 92.437 161.05L93.6549 160.993L94.8932 160.888C95.0949 160.859 95.3751 160.832 95.7338 160.808C95.7806 160.805 95.8071 160.851 95.8133 160.944C95.8195 161.038 95.7992 161.086 95.7524 161.089C95.3002 161.119 94.9752 161.18 94.7777 161.271C94.5801 161.363 94.4496 161.52 94.3861 161.744C94.3236 161.983 94.3078 162.336 94.3389 162.804L94.6489 167.483C94.6851 168.029 94.7733 168.414 94.9136 168.64C95.0539 168.866 95.2799 168.968 95.5918 168.947C95.8414 168.931 96.2703 168.785 96.8786 168.51L96.9254 168.507C96.9878 168.502 97.0366 168.531 97.0719 168.591C97.0927 168.668 97.0729 168.724 97.0126 168.759L94.4966 170.148C94.4665 170.165 94.428 170.176 94.3812 170.179C94.2564 170.187 94.1042 170.017 93.9245 169.669C93.7458 169.336 93.6383 168.897 93.6022 168.351L93.596 168.257C93.0655 168.997 92.5298 169.542 91.989 169.891C91.4483 170.24 90.8738 170.435 90.2656 170.475C89.5638 170.522 88.9905 170.38 88.5456 170.049C88.0862 169.735 87.7792 169.238 87.6246 168.559C87.0805 169.331 86.5308 169.9 85.9755 170.266C85.4202 170.632 84.8384 170.835 84.2302 170.875C83.4036 170.93 82.7565 170.738 82.2889 170.299C81.8212 169.86 81.5558 169.165 81.4928 168.214L81.192 163.675C81.161 163.208 81.1066 162.859 81.0287 162.629C80.9362 162.416 80.786 162.277 80.5781 162.212C80.3546 162.149 80.0168 162.132 79.5645 162.162Z" fill="black"/>
<path d="M73.5458 166.252C71.4797 166.024 70.5376 165.086 70.7196 163.44C70.8278 162.461 71.246 161.737 71.9741 161.267C72.6866 160.795 73.6099 160.622 74.744 160.747C75.6916 160.852 76.3934 161.118 76.8493 161.546C77.2879 161.988 77.4678 162.566 77.3888 163.281L76.9046 167.661C76.8342 168.298 76.8388 168.755 76.9183 169.031C76.9806 169.321 77.136 169.48 77.3846 169.507C77.5555 169.526 77.8437 169.479 78.2493 169.367L78.2959 169.372C78.358 169.379 78.4003 169.423 78.4228 169.504C78.4297 169.583 78.4013 169.627 78.3374 169.636L75.7696 170.461L75.6738 170.474C75.6428 170.47 75.6056 170.45 75.5625 170.414C75.5193 170.378 75.5003 170.337 75.5054 170.29L75.9639 166.142C75.1908 166.308 74.3847 166.345 73.5458 166.252ZM74.3843 161.014C72.9861 160.86 72.2029 161.544 72.0346 163.066C71.9488 163.843 72.0898 164.487 72.4578 165C72.824 165.528 73.4653 165.842 74.3819 165.944C74.9722 166.009 75.5107 165.974 75.9974 165.839L76.2395 163.649C76.4164 162.049 75.7979 161.171 74.3843 161.014Z" fill="black"/>
<path d="M58.8367 159.851C58.1335 159.588 57.5902 159.188 57.2069 158.651C56.8087 158.109 56.5783 157.508 56.5156 156.846C56.4381 156.179 56.5064 155.519 56.7205 154.865C57.0028 154.004 57.4564 153.297 58.0813 152.745C58.6913 152.189 59.4161 151.834 60.2555 151.681C61.0999 151.514 61.9824 151.581 62.9033 151.883C63.542 152.092 64.087 152.361 64.5385 152.69C64.9751 153.014 65.2906 153.356 65.4852 153.716C65.6798 154.076 65.726 154.411 65.6238 154.723C65.5557 154.931 65.4452 155.068 65.2923 155.133C65.1443 155.183 64.996 155.184 64.8475 155.135C64.6841 155.082 64.56 154.983 64.4753 154.84C64.3757 154.693 64.2558 154.456 64.1158 154.131C63.9205 153.622 63.6909 153.194 63.4272 152.844C63.1486 152.49 62.7122 152.215 62.1181 152.02C61.2121 151.723 60.4221 151.876 59.748 152.477C59.074 153.079 58.5569 153.929 58.1967 155.028C57.345 157.627 58.3821 159.406 61.3081 160.365C61.3675 160.385 61.39 160.441 61.3757 160.535C61.3613 160.629 61.3096 160.662 61.2205 160.632C59.8689 160.189 58.8234 160.168 58.0841 160.567C57.3299 160.961 56.7824 161.678 56.4418 162.718C56.1303 163.668 56.1047 164.474 56.3651 165.135C56.6058 165.806 57.1643 166.285 58.0406 166.572C58.798 166.82 59.4924 166.81 60.1237 166.539C60.755 166.269 61.3576 165.71 61.9315 164.862C61.9364 164.847 61.9685 164.85 62.0279 164.869C62.1468 164.908 62.189 164.955 62.1547 165.009L60.2645 167.992C60.2548 168.021 60.2202 168.027 60.1608 168.007C60.1163 167.993 60.0766 167.963 60.0417 167.919C60.0021 167.889 59.9921 167.87 60.0118 167.86C60.0804 167.751 60.122 167.674 60.1366 167.629C60.1853 167.481 60.1847 167.357 60.1348 167.258C60.0651 167.17 59.9857 167.111 59.8966 167.082C59.8075 167.053 59.5504 167.034 59.1253 167.026C58.3345 167.03 57.6792 166.947 57.1594 166.777C56.1939 166.461 55.5388 165.925 55.1939 165.171C54.8293 164.426 54.7857 163.631 55.0631 162.784C55.3259 161.982 55.8019 161.307 56.4911 160.76C57.1654 160.208 57.9473 159.905 58.8367 159.851Z" fill="black"/>
<path d="M44.5014 152.559C44.4453 152.531 44.4274 152.479 44.4477 152.402C44.4612 152.339 44.4995 152.314 44.5625 152.328L47.4461 152.357L47.5406 152.377C47.6669 152.439 47.7143 152.68 47.6828 153.099C47.6303 153.526 47.4803 153.992 47.2328 154.497C48.0131 154.184 48.7665 153.996 49.493 153.934C50.2054 153.865 50.8914 153.992 51.5511 154.316C52.4073 154.735 52.9718 155.395 53.2447 156.294C53.5108 157.208 53.3688 158.226 52.8187 159.349C52.3236 160.359 51.6518 161.127 50.8033 161.651C49.9479 162.189 49.0626 162.486 48.1473 162.542C47.2181 162.592 46.4096 162.448 45.7218 162.111C45.3428 161.926 45.0089 161.684 44.7199 161.385C44.4099 161.094 44.1628 160.782 43.9783 160.448C43.6918 160.464 43.434 160.564 43.2048 160.748C43.1839 160.755 43.1488 160.738 43.0996 160.696C43.0434 160.669 43.0222 160.641 43.036 160.613L45.9858 154.591C46.2196 154.114 46.3354 153.736 46.3331 153.456C46.3099 153.184 46.158 152.979 45.8773 152.841C45.7369 152.773 45.5547 152.718 45.3307 152.678C45.0858 152.645 44.8234 152.612 44.5436 152.58L44.5014 152.559ZM50.6518 154.606C49.7675 154.173 48.5728 154.249 47.0678 154.834L45.0049 159.045C44.7574 159.55 44.7897 160.088 45.1019 160.659C45.4072 161.244 45.8546 161.68 46.4441 161.969C47.3003 162.389 48.1877 162.353 49.1064 161.864C50.0042 161.381 50.7454 160.543 51.3298 159.35C51.8455 158.297 52.0474 157.335 51.9355 156.462C51.8236 155.589 51.3957 154.97 50.6518 154.606Z" fill="black"/>
<path d="M37.9676 146.824C37.9417 146.807 37.955 146.759 38.0074 146.681C38.0599 146.604 38.0991 146.574 38.125 146.591C38.423 146.792 38.6518 146.956 38.8115 147.083L39.7894 147.771L40.8325 148.447C41.0226 148.556 41.2796 148.72 41.6035 148.939C41.6294 148.956 41.6161 149.004 41.5637 149.081C41.5112 149.159 41.472 149.189 41.4461 149.172C41.0575 148.91 40.7571 148.754 40.5449 148.705C40.3198 148.647 40.1202 148.692 39.9459 148.838C39.75 148.989 39.5209 149.258 39.2586 149.647L37.816 151.785C38.3517 152.109 38.9079 152.248 39.4847 152.204C40.0615 152.159 40.8477 151.889 41.8432 151.391C42.7169 150.963 43.2798 150.702 43.5318 150.608C43.762 150.518 43.9354 150.512 44.052 150.591L45.5872 151.627C45.6131 151.645 45.5999 151.692 45.5474 151.77C45.495 151.848 45.4558 151.878 45.4299 151.86C45.0282 151.589 44.6278 151.498 44.2285 151.587C43.8075 151.68 43.423 151.816 43.0752 151.997C42.7274 152.177 42.5014 152.288 42.3971 152.331C41.8624 152.592 41.3153 152.76 40.7556 152.835C40.196 152.91 39.6913 152.862 39.2414 152.69C40.6785 153.83 41.0167 154.963 40.256 156.09C39.8364 156.712 39.2904 157.06 38.618 157.134C37.9327 157.2 37.2273 156.988 36.5019 156.498C36.3593 156.402 36.0896 156.201 35.6925 155.895C35.3689 155.62 35.0646 155.387 34.7796 155.194L33.7948 154.558C33.6177 154.457 33.3801 154.306 33.0821 154.105C33.0562 154.088 33.0695 154.04 33.122 153.962C33.1744 153.885 33.2136 153.855 33.2395 153.872C33.6023 154.117 33.9005 154.262 34.1344 154.306C34.3465 154.355 34.5527 154.315 34.7528 154.186C34.94 154.049 35.1647 153.785 35.427 153.397L38.3647 149.044C38.627 148.655 38.787 148.348 38.8446 148.123C38.8893 147.889 38.8471 147.672 38.7182 147.472C38.5806 147.285 38.3304 147.069 37.9676 146.824ZM38.9633 155.868C39.383 155.246 39.5641 154.643 39.5068 154.057C39.4494 153.472 39.1227 152.978 38.5268 152.576C38.3195 152.436 38.017 152.269 37.6193 152.076L36.3471 153.961C36.0674 154.376 35.9008 154.706 35.8474 154.953C35.781 155.191 35.8123 155.41 35.9412 155.611C36.0701 155.811 36.3159 156.033 36.6787 156.278C37.5985 156.899 38.36 156.762 38.9633 155.868Z" fill="black"/>
<path d="M27.4781 149.412C26.9449 148.859 26.5892 148.222 26.4111 147.503C26.2329 146.783 26.2422 146.052 26.439 145.308C26.6358 144.565 27.0184 143.871 27.5869 143.226C28.1553 142.581 28.8011 142.109 29.5241 141.809C30.2471 141.508 31.0002 141.422 31.7835 141.55C32.5563 141.69 33.2945 142.07 33.998 142.69C34.7483 143.351 35.1868 144.071 35.3133 144.849C35.4295 145.639 35.232 146.549 34.721 147.578C34.2099 148.606 33.3498 149.807 32.1406 151.178C29.6084 154.051 27.5154 155.633 25.8617 155.926C24.1977 156.23 22.8439 155.922 21.8005 155.002C20.4052 153.772 20.2968 152.489 21.475 151.152C22.1778 150.355 23.09 149.805 24.2115 149.502C25.3329 149.198 26.4218 149.169 27.4781 149.412ZM22.4199 155.079C24.0496 156.516 26.6432 155.323 30.2008 151.5C30.0587 151.354 29.8294 151.141 29.5128 150.862C28.8211 150.252 28.055 149.869 27.2145 149.711C26.3638 149.565 25.5431 149.634 24.7525 149.916C23.9515 150.21 23.272 150.674 22.7139 151.307C22.1351 151.963 21.8062 152.632 21.7273 153.312C21.6263 153.994 21.8571 154.583 22.4199 155.079ZM33.2286 142.605C32.5251 141.985 31.8063 141.737 31.0721 141.861C30.338 141.984 29.5989 142.468 28.8547 143.313C27.8315 144.473 27.3984 145.685 27.5555 146.949C27.7126 148.213 28.4418 149.418 29.7433 150.565C30.0598 150.844 30.3053 151.05 30.4798 151.183L30.8209 150.796C32.1231 149.319 33.0519 148.065 33.607 147.033C34.1519 146.013 34.3859 145.157 34.309 144.464C34.2101 143.773 33.85 143.153 33.2286 142.605Z" fill="black"/>
<path d="M23.3592 132.263C23.3287 132.227 23.3489 132.179 23.42 132.117C23.4911 132.056 23.542 132.044 23.5726 132.079L25.2081 133.981C25.2692 134.052 25.2719 134.163 25.2162 134.314C25.1605 134.465 25.0761 134.703 24.963 135.027C24.8381 135.361 24.6872 135.893 24.5103 136.622C24.3133 137.471 24.1905 138.072 24.1419 138.423C24.0712 138.772 24.0708 139.071 24.1407 139.32C24.1988 139.58 24.3501 139.852 24.5947 140.136L24.9334 140.494L26.871 138.828C27.2266 138.522 27.4677 138.263 27.5946 138.051C27.7095 137.849 27.7304 137.646 27.6572 137.441C27.5738 137.224 27.3843 136.944 27.0888 136.6C27.0684 136.576 27.0938 136.534 27.1649 136.473C27.236 136.412 27.2817 136.393 27.3021 136.417C27.5569 136.713 27.7497 136.949 27.8805 137.125L28.6117 138.011L29.4243 138.921C29.5788 139.076 29.7834 139.302 30.0382 139.599C30.0687 139.634 30.0485 139.682 29.9773 139.744C29.9062 139.805 29.8554 139.817 29.8248 139.782C29.5191 139.426 29.2704 139.197 29.0787 139.094C28.8768 138.979 28.6725 138.969 28.4658 139.064C28.2371 139.158 27.945 139.358 27.5894 139.663L18.3635 147.596C17.925 147.973 17.6466 148.285 17.5283 148.531C17.41 148.777 17.4426 149.007 17.626 149.22C17.7993 149.421 18.1327 149.629 18.6264 149.844L18.6569 149.879C18.6977 149.927 18.6986 149.988 18.6598 150.062C18.6107 150.125 18.5599 150.138 18.5072 150.101L15.6242 148.869L15.53 148.796C15.5096 148.772 15.5011 148.738 15.5044 148.694C15.4976 148.638 15.5119 148.595 15.5475 148.564L24.6134 140.769C24.1805 140.337 23.8264 139.962 23.5513 139.642C23.3984 139.464 23.1898 139.365 22.9253 139.345C22.6608 139.325 22.337 139.356 21.954 139.438L21.039 139.668C20.373 139.829 19.8662 139.935 19.5188 139.986C19.1595 140.048 18.8323 140.051 18.5373 139.995C18.232 139.928 17.9673 139.764 17.7431 139.503C17.5393 139.266 17.4406 139.032 17.447 138.799C17.4416 138.577 17.5159 138.4 17.67 138.268C17.8359 138.125 18.0291 138.062 18.2495 138.078C18.4699 138.095 18.6616 138.198 18.8246 138.388C18.9367 138.518 19.0133 138.679 19.0543 138.871C19.0834 139.072 19.1234 139.203 19.1744 139.262C19.2865 139.392 19.6103 139.433 20.146 139.385C20.6595 139.335 21.2146 139.249 21.8112 139.128C22.3857 139.005 22.8204 138.971 23.1155 139.027C23.0117 138.786 22.9765 138.518 23.01 138.221C23.0332 137.912 23.1214 137.404 23.2746 136.695L23.4058 136.056C23.4395 135.904 23.4783 135.757 23.5221 135.616C23.5541 135.486 23.5802 135.36 23.6004 135.24C23.7907 134.478 23.8899 133.898 23.8977 133.5C23.8835 133.1 23.704 132.687 23.3592 132.263Z" fill="black"/>
<path d="M10.3956 128.413C10.3701 128.374 10.3967 128.329 10.4755 128.278C10.5542 128.227 10.6063 128.221 10.6318 128.261C10.8355 128.576 11.1079 128.781 11.4491 128.877C11.7902 128.972 12.2761 128.947 12.9068 128.799L21.0537 127.021C22.6408 126.683 23.9287 126.501 24.9175 126.476C25.9109 126.429 26.7071 126.538 27.306 126.802C27.9181 127.058 28.4193 127.487 28.8098 128.091C28.9795 128.353 29.0582 128.619 29.0458 128.888C29.0465 129.148 28.9288 129.354 28.6925 129.507C28.5482 129.6 28.3961 129.624 28.2363 129.579C28.0766 129.533 27.95 129.438 27.8566 129.294C27.6784 129.018 27.5831 128.698 27.5709 128.334C27.5732 128.165 27.5578 128.026 27.5246 127.917C27.4961 127.786 27.4351 127.649 27.3418 127.505C27.1296 127.177 26.7858 126.962 26.3103 126.86C25.8348 126.758 25.1564 126.759 24.2748 126.864C23.3848 126.955 22.181 127.166 20.6634 127.496L16.5493 134.345C16.167 135.02 15.9416 135.492 15.8728 135.76C15.7909 136.036 15.8306 136.299 15.9919 136.548C16.0089 136.575 15.978 136.613 15.8992 136.664C15.8205 136.715 15.7726 136.727 15.7556 136.701C15.5774 136.426 15.4524 136.218 15.3806 136.078L15.0056 135.455L14.1966 134.247C14.0646 134.072 13.8926 133.82 13.6804 133.492C13.6634 133.466 13.6943 133.427 13.773 133.377C13.8518 133.326 13.8996 133.313 13.9166 133.34C14.4259 134.127 14.838 134.419 15.153 134.215C15.2448 134.156 15.3263 134.066 15.3973 133.945L19.1385 127.729L13.2529 129.162C12.8963 129.244 12.6261 129.344 12.4424 129.463C12.1668 129.641 12.0571 129.889 12.1134 130.206C12.1612 130.51 12.3718 130.951 12.7453 131.528C12.7622 131.555 12.7314 131.593 12.6526 131.644C12.5739 131.695 12.526 131.707 12.509 131.681C12.2799 131.327 12.1124 131.054 12.0067 130.861L11.2625 129.667L10.7972 128.991C10.7077 128.882 10.5738 128.689 10.3956 128.413Z" fill="black"/>
<path d="M5.17203 90.0637C5.18969 90.6729 5.00153 91.1944 4.60756 91.628C4.19797 92.062 3.68852 92.2879 3.07922 92.3055C2.48555 92.3228 1.9795 92.1263 1.56108 91.7163C1.12703 91.3067 0.901179 90.7972 0.883519 90.1879C0.866311 89.5943 1.06273 89.0882 1.47278 88.6698C1.86675 88.2362 2.36057 88.0108 2.95424 87.9936C3.56354 87.9759 4.08521 88.1719 4.51926 88.5815C4.93723 88.9759 5.15482 89.47 5.17203 90.0637Z" fill="black"/>
<path d="M20.3827 48.1469C19.5974 49.3701 18.6137 50.2801 17.4318 50.8772C16.2451 51.4526 14.9963 51.6909 13.6852 51.5922C12.3695 51.4718 11.1329 51.0401 9.97555 50.297C8.62087 49.4273 7.68301 48.3423 7.16199 47.0419C6.62781 45.7332 6.45938 44.3899 6.65671 43.0121C6.86249 41.6212 7.32424 40.3668 8.04198 39.2489C8.84416 37.9994 9.84516 37.0912 11.045 36.5242C12.2316 35.9488 13.4655 35.7194 14.7464 35.836C16.0359 35.9395 17.2198 36.3374 18.2983 37.0298C19.4952 37.7982 20.3907 38.8189 20.985 40.092C21.5792 41.365 21.8237 42.72 21.7185 44.1569C21.6217 45.5806 21.1764 46.9106 20.3827 48.1469ZM20.4441 47.1834C21.0436 46.2495 21.367 45.2685 21.4143 44.2402C21.4616 43.2118 21.2036 42.2104 20.6406 41.236C20.0775 40.2616 19.2106 39.3986 18.0401 38.6471C16.8038 37.8533 15.5494 37.3916 14.2768 37.2618C12.9996 37.1104 11.8084 37.3022 10.7035 37.8372C9.60691 38.3591 8.6871 39.1987 7.94403 40.3561C6.96453 41.8818 6.67383 43.376 7.07193 44.8389C7.47004 46.3017 8.48453 47.5567 10.1154 48.6038C11.3386 49.389 12.6151 49.8743 13.9449 50.0594C15.2701 50.223 16.5072 50.0607 17.6564 49.5726C18.8055 49.0846 19.7348 48.2881 20.4441 47.1834Z" fill="black"/>
<path d="M29.021 36.9419C28.3373 37.6721 27.6007 38.1386 26.8112 38.3415C26.021 38.5222 25.257 38.492 24.5193 38.2509C23.7815 38.0097 23.1274 37.6221 22.557 37.0879C21.8269 36.4042 21.3593 35.6345 21.1542 34.7787C20.9485 33.9009 20.9647 33.0489 21.203 32.2228C21.4405 31.3746 21.837 30.6539 22.3925 30.0606C22.8519 29.5701 23.3655 29.2159 23.9334 28.9982C24.5119 28.7691 24.9324 28.7774 25.1948 29.0231C25.3317 29.1513 25.4087 29.3091 25.4259 29.4966C25.4317 29.6733 25.3652 29.8358 25.2263 29.9841C24.9806 30.2465 24.6072 30.3251 24.1062 30.22C23.7505 30.1653 23.4252 30.1926 23.1303 30.3018C22.8346 30.3889 22.5318 30.5979 22.222 30.9287C21.581 31.6132 21.3353 32.3788 21.4847 33.2253C21.6334 34.0497 22.1299 34.8572 22.9741 35.6478C23.9325 36.5451 24.9607 37.0477 26.059 37.1553C27.1458 37.2523 28.1433 36.816 29.0513 35.8462C29.735 35.1161 30.0856 34.3416 30.1029 33.5227L30.1349 33.4885C30.167 33.4543 30.2108 33.4418 30.2664 33.451C30.3327 33.4488 30.3612 33.4756 30.352 33.5311C30.331 34.2395 30.2134 34.8682 29.9993 35.417C29.7851 35.9659 29.459 36.4742 29.021 36.9419Z" fill="black"/>
<path d="M44.964 22.9687C45.0017 22.9408 45.0484 22.9646 45.1041 23.04C45.1599 23.1155 45.1689 23.1671 45.1312 23.195C44.842 23.4086 44.6111 23.5695 44.4384 23.6777L43.4252 24.3973L42.4587 25.1407C42.292 25.2833 42.0641 25.4614 41.775 25.6751C41.7499 25.6936 41.7094 25.6652 41.6537 25.5898C41.598 25.5144 41.5827 25.4674 41.6078 25.4488C41.9723 25.1794 42.2131 24.9529 42.33 24.7693C42.4596 24.5765 42.4907 24.3688 42.4236 24.1464C42.3471 23.9114 42.1695 23.6053 41.8908 23.2282L39.6197 20.1549C39.0531 19.3881 38.4969 18.9247 37.9509 18.7645C37.4176 18.5951 36.8618 18.724 36.2836 19.1512C35.8939 19.4392 35.58 19.8558 35.3416 20.4012C35.1066 20.9247 34.9727 21.5193 34.9398 22.1849C34.9988 22.2384 35.0887 22.3469 35.2094 22.5103L37.9125 26.1681C38.1911 26.5452 38.4316 26.8048 38.6337 26.9469C38.8266 27.0765 39.028 27.1123 39.2379 27.0544C39.4603 26.9872 39.7538 26.8189 40.1183 26.5495C40.1434 26.531 40.1839 26.5594 40.2396 26.6348C40.2953 26.7102 40.3106 26.7572 40.2855 26.7758C39.9964 26.9894 39.7592 27.155 39.5739 27.2725L38.5795 27.9781L37.5942 28.7354C37.44 28.8688 37.2184 29.0422 36.9293 29.2559C36.8916 29.2838 36.8449 29.26 36.7892 29.1846C36.7334 29.1091 36.7244 29.0575 36.7621 29.0296C37.1267 28.7603 37.3674 28.5338 37.4844 28.3502C37.6013 28.1666 37.6262 27.9635 37.559 27.7411C37.4825 27.5061 37.305 27.2001 37.0263 26.823L34.7552 23.7497C34.1886 22.9829 33.6323 22.5194 33.0864 22.3593C32.5531 22.1898 32.0036 22.3141 31.4379 22.7321C31.0483 23.02 30.7359 23.4257 30.5009 23.9492C30.2658 24.4727 30.1319 25.0673 30.099 25.7329L33.0668 29.749C33.3455 30.1261 33.5796 30.3903 33.7692 30.5417C33.9621 30.6712 34.1635 30.707 34.3733 30.6491C34.5957 30.5819 34.8892 30.4137 35.2537 30.1443C35.2915 30.1164 35.3382 30.1402 35.3939 30.2156C35.4496 30.291 35.4586 30.3427 35.4209 30.3705C35.1318 30.5842 34.9009 30.7451 34.7282 30.8533L33.7339 31.5589L32.7485 32.3163C32.5944 32.4496 32.3728 32.6231 32.0836 32.8367C32.0459 32.8646 31.9992 32.8408 31.9435 32.7654C31.8877 32.69 31.8787 32.6383 31.9164 32.6104C32.281 32.3411 32.5217 32.1146 32.6387 31.931C32.7556 31.7474 32.7805 31.5444 32.7133 31.3219C32.6369 31.087 32.4593 30.7809 32.1806 30.4038L29.394 26.6329C29.0689 26.1929 28.7864 25.9158 28.5465 25.8016C28.3066 25.6873 28.061 25.7231 27.8096 25.9089C27.6084 26.0575 27.3262 26.4119 26.9627 26.972L26.925 26.9998C26.8747 27.037 26.8184 27.0397 26.7561 27.008C26.6971 26.9544 26.6835 26.8965 26.7152 26.8342L28.0835 24.3072C28.0994 24.2761 28.1261 24.2465 28.1639 24.2187C28.2644 24.1444 28.4844 24.2053 28.8237 24.4015C29.1538 24.5852 29.4813 24.897 29.8064 25.3369L29.8622 25.4124C29.9093 24.503 30.0662 23.7555 30.3329 23.1697C30.5997 22.5839 30.9781 22.1099 31.4684 21.7476C32.034 21.3296 32.5933 21.1398 33.1464 21.1781C33.7027 21.1945 34.2292 21.4468 34.7259 21.9348C34.767 20.9911 34.9225 20.2154 35.1925 19.6077C35.4625 19.0001 35.8427 18.5151 36.3329 18.1528C36.9991 17.6605 37.6475 17.4729 38.2781 17.5899C38.9087 17.7069 39.5074 18.1488 40.074 18.9156L42.777 22.5734C43.0557 22.9505 43.2898 23.2147 43.4794 23.3661C43.6723 23.4957 43.8737 23.5315 44.0835 23.4736C44.306 23.4064 44.5994 23.2381 44.964 22.9687Z" fill="black"/>
<path d="M54.8932 17.2158C54.9495 17.1886 55.0016 17.2067 55.0497 17.2703C55.091 17.3198 55.0869 17.3652 55.0374 17.4064L53.235 19.6575L53.1608 19.7194C53.0341 19.7806 52.8154 19.6694 52.5047 19.3856C52.2012 19.0809 51.9271 18.6752 51.6822 18.1686C51.4477 18.9764 51.1305 19.6851 50.7309 20.2949C50.3453 20.8978 49.8218 21.3591 49.1604 21.6788C48.302 22.0936 47.4346 22.1309 46.5584 21.7905C45.6754 21.4361 44.9619 20.696 44.4178 19.5702C43.9282 18.557 43.739 17.5548 43.8502 16.5637C43.9546 15.5585 44.267 14.6784 44.7875 13.9235C45.322 13.1617 45.9341 12.6143 46.6236 12.281C47.0036 12.0974 47.4001 11.9839 47.8131 11.9405C48.2334 11.8763 48.6318 11.8747 49.0085 11.9357C49.1724 11.7002 49.2529 11.4356 49.2499 11.142C49.2571 11.1211 49.2923 11.1041 49.3554 11.091C49.4117 11.0638 49.4466 11.0643 49.4602 11.0924L52.3778 17.1294C52.609 17.6079 52.8353 17.9325 53.0567 18.1033C53.2854 18.2531 53.5404 18.2601 53.8219 18.1241C53.9626 18.056 54.1179 17.9463 54.2877 17.7948C54.4648 17.6224 54.6525 17.4362 54.851 17.2362L54.8932 17.2158ZM49.4869 20.7919C50.3734 20.3635 51.0508 19.3765 51.519 17.8309L49.4788 13.6092C49.2339 13.1026 48.7907 12.796 48.149 12.6895C47.5005 12.5689 46.8808 12.6515 46.2897 12.9371C45.4313 13.352 44.9113 14.0719 44.7297 15.0971C44.5554 16.1014 44.7573 17.2016 45.3354 18.3977C45.8455 19.4531 46.4784 20.2061 47.2343 20.6567C47.9902 21.1073 48.741 21.1524 49.4869 20.7919Z" fill="black"/>
<path d="M57.2156 8.35642C57.963 8.17807 58.692 8.19484 59.4024 8.40673C60.1129 8.61861 60.7383 8.99804 61.2786 9.54499C61.819 10.0919 62.2226 10.774 62.4895 11.5911C62.7564 12.4083 62.8356 13.2045 62.7272 13.9798C62.6187 14.7552 62.3105 15.4477 61.8027 16.0575C61.29 16.6525 60.5879 17.0955 59.6965 17.3867C58.7456 17.6973 57.9029 17.7095 57.1681 17.4233C56.4286 17.1223 55.7454 16.4904 55.1186 15.5278C54.4917 14.5651 53.8944 13.2146 53.3267 11.4764C52.1378 7.83637 51.8372 5.22981 52.425 3.65668C53.008 2.0687 53.9606 1.05876 55.2829 0.626877C57.0509 0.0494107 58.2115 0.607534 58.7647 2.30125C59.0947 3.31153 59.1055 4.37672 58.7972 5.49682C58.489 6.61692 57.9618 7.57012 57.2156 8.35642ZM54.9018 1.1213C52.8367 1.79582 52.5476 4.63605 54.0347 9.64201C54.2327 9.59378 54.5323 9.50416 54.9334 9.37313C55.81 9.08683 56.5295 8.62164 57.0919 7.97756C57.6494 7.31863 58.0073 6.57694 58.1655 5.75248C58.3189 4.91317 58.2645 4.09238 58.0025 3.29009C57.7307 2.45809 57.3218 1.83532 56.7757 1.42178C56.2396 0.988533 55.6149 0.888372 54.9018 1.1213ZM60.1599 16.7667C61.0513 16.4756 61.6301 15.9824 61.8963 15.2871C62.1625 14.5918 62.1209 13.7093 61.7715 12.6396C61.2911 11.1687 60.4667 10.1801 59.2984 9.67387C58.13 9.1676 56.7213 9.18378 55.0722 9.72243C54.671 9.85345 54.3689 9.96036 54.1657 10.0432L54.3259 10.5334C54.9373 12.4054 55.5464 13.8425 56.1532 14.8445C56.7552 15.8318 57.3741 16.4682 58.01 16.7537C58.6558 17.0196 59.3725 17.0239 60.1599 16.7667Z" fill="black"/>
<path d="M75.0544 12.2522C75.116 12.2412 75.1613 12.2728 75.1904 12.3469C75.2322 12.403 75.2251 12.4519 75.169 12.4937L72.7988 14.1558L72.7106 14.1954C72.5721 14.2202 72.3957 14.077 72.1813 13.7661C71.9796 13.4369 71.8306 13.0031 71.7343 12.4646L71.6972 12.2569C71.1929 13.0774 70.6619 13.7043 70.1043 14.1374C69.5439 14.5551 68.9406 14.8217 68.2944 14.9372C67.5405 15.072 66.9055 14.9394 66.3894 14.5395C65.8887 14.1368 65.5559 13.4739 65.3909 12.5507L64.7514 8.97358C64.6386 8.34277 64.505 7.90621 64.3506 7.66391C64.2087 7.40347 64.0147 7.29525 63.7686 7.33926C63.5378 7.38052 63.2746 7.50695 62.979 7.71857L62.9329 7.72682C62.8713 7.73782 62.8183 7.70761 62.7738 7.63618C62.7446 7.562 62.7594 7.51172 62.8182 7.48533L65.0476 5.96745L65.1358 5.92787C65.1665 5.92237 65.2077 5.93088 65.2594 5.9534C65.3111 5.97592 65.341 6.01026 65.3493 6.05642L66.3518 11.6645C66.5168 12.5876 66.8008 13.2434 67.2036 13.6318C67.6065 14.0202 68.131 14.1567 68.7772 14.0412C69.3157 13.9449 69.8371 13.7088 70.3415 13.3329C70.8431 12.9415 71.2717 12.4521 71.6271 11.8646L70.9133 7.87203C70.8006 7.24122 70.667 6.80467 70.5125 6.56236C70.3707 6.30193 70.169 6.19508 69.9074 6.24184C69.6767 6.2831 69.4135 6.40953 69.1179 6.62115L69.0717 6.6294C69.0102 6.6404 68.9648 6.60881 68.9357 6.53464C68.9066 6.46046 68.9214 6.41018 68.9802 6.38379L71.2095 4.86591L71.2746 4.83046C71.3208 4.8222 71.362 4.83071 71.3983 4.85598C71.4499 4.8785 71.4799 4.91284 71.4881 4.959L72.6557 11.4902C72.7492 12.0133 72.8795 12.3869 73.0466 12.6111C73.2263 12.8171 73.47 12.8927 73.7777 12.8376C73.9316 12.8101 74.1107 12.7464 74.3151 12.6463C74.5322 12.5281 74.7632 12.3995 75.0083 12.2604L75.0544 12.2522Z" fill="black"/>
<path d="M91.2432 13.1139C91.2901 13.1143 91.3131 13.1614 91.3124 13.2551C91.3116 13.3489 91.2877 13.3956 91.2408 13.3952C90.8814 13.3922 90.6001 13.382 90.3971 13.3647L89.1548 13.3308L87.9355 13.3441C87.7166 13.3578 87.4274 13.3632 87.0679 13.3602C87.0366 13.36 87.0214 13.3129 87.0222 13.2192C87.023 13.1254 87.039 13.0786 87.0703 13.0789C87.5235 13.0827 87.852 13.0464 88.0559 12.9699C88.2753 12.8936 88.4251 12.7464 88.505 12.5283C88.5851 12.2945 88.6272 11.9431 88.6311 11.4743L88.6631 7.65299C88.6711 6.69962 88.5051 5.99488 88.1651 5.53875C87.8407 5.08276 87.319 4.85175 86.6001 4.84572C86.1156 4.84166 85.6142 4.98594 85.0959 5.27857C84.5935 5.55569 84.1291 5.95037 83.7028 6.46259C83.7177 6.54086 83.7244 6.68159 83.7227 6.88476L83.6845 11.4328C83.6806 11.9017 83.7167 12.2537 83.7929 12.4887C83.8692 12.7082 84.0086 12.8579 84.2111 12.9377C84.4293 13.0177 84.765 13.0596 85.2182 13.0634C85.2495 13.0636 85.2647 13.1107 85.2639 13.2044C85.2631 13.2982 85.2471 13.345 85.2159 13.3447C84.8564 13.3417 84.5673 13.3314 84.3487 13.314L83.1298 13.2803L81.8871 13.2933C81.6838 13.3073 81.4024 13.3127 81.0429 13.3097C80.996 13.3093 80.973 13.2622 80.9738 13.1685C80.9746 13.0747 80.9984 13.028 81.0453 13.0284C81.4985 13.0322 81.8271 12.9959 82.0309 12.9194C82.2347 12.843 82.3766 12.6957 82.4566 12.4775C82.5367 12.2438 82.5787 11.8924 82.5827 11.4236L82.6147 7.60227C82.6227 6.64891 82.4567 5.94416 82.1167 5.48804C81.7922 5.03204 81.2784 4.8011 80.5751 4.7952C80.0906 4.79114 79.5971 4.92767 79.0946 5.2048C78.5921 5.48193 78.1277 5.8766 77.7014 6.38882L77.6596 11.3823C77.6556 11.8512 77.6839 12.2031 77.7445 12.438C77.8208 12.6575 77.9602 12.8071 78.1627 12.887C78.3809 12.967 78.7166 13.0089 79.1698 13.0127C79.2167 13.0131 79.2398 13.0601 79.239 13.1539C79.2382 13.2477 79.2143 13.2944 79.1674 13.294C78.808 13.291 78.5267 13.2808 78.3237 13.2635L77.1048 13.2298L75.8621 13.2428C75.6588 13.2567 75.3774 13.2622 75.018 13.2592C74.9711 13.2588 74.948 13.2117 74.9488 13.1179C74.9496 13.0242 74.9734 12.9775 75.0203 12.9779C75.4736 12.9817 75.8021 12.9453 76.0059 12.8689C76.2098 12.7925 76.3517 12.6452 76.4316 12.427C76.5118 12.1932 76.5538 11.8419 76.5577 11.373L76.597 6.68435C76.6016 6.13733 76.5424 5.74608 76.4193 5.5106C76.2962 5.27512 76.0784 5.15606 75.7658 5.15344C75.5158 5.15135 75.0772 5.26489 74.4501 5.49409L74.4032 5.49369C74.3406 5.49317 74.294 5.46152 74.2633 5.39874C74.2483 5.32046 74.2722 5.26596 74.335 5.23523L76.9474 4.03798C76.9788 4.02262 77.018 4.01513 77.0649 4.01552C77.1899 4.01657 77.329 4.19748 77.4823 4.55826C77.6357 4.90341 77.7101 5.34949 77.7055 5.89651L77.7048 5.99028C78.2889 5.29182 78.8637 4.78867 79.4289 4.4808C79.9942 4.17294 80.5816 4.02157 81.1911 4.02668C81.8944 4.03257 82.4555 4.21703 82.8745 4.58003C83.3092 4.92754 83.5784 5.44559 83.6821 6.13418C84.2821 5.4046 84.8727 4.87813 85.4537 4.55477C86.0347 4.23141 86.63 4.07228 87.2395 4.07739C88.0679 4.08434 88.6989 4.32408 89.1325 4.79662C89.5662 5.26916 89.7791 5.98211 89.7711 6.93548L89.7329 11.4835C89.729 11.9524 89.7573 12.3043 89.8179 12.5393C89.8942 12.7587 90.0336 12.9084 90.2361 12.9882C90.4543 13.0682 90.79 13.1101 91.2432 13.1139Z" fill="black"/>
<path d="M97.5296 9.39942C99.5739 9.77636 100.446 10.7795 100.145 12.4087C99.9668 13.3771 99.4975 14.0693 98.7374 14.4854C97.9926 14.9043 97.0592 15.0103 95.9372 14.8034C94.9996 14.6306 94.3189 14.3143 93.895 13.8547C93.4894 13.3826 93.3518 12.793 93.4821 12.086L94.2814 7.75154C94.3976 7.12135 94.426 6.66569 94.3665 6.38455C94.3253 6.09088 94.1818 5.92137 93.9358 5.87602C93.7668 5.84485 93.4759 5.87069 93.0633 5.95354L93.0172 5.94503C92.9557 5.9337 92.9167 5.88677 92.9001 5.80425C92.8989 5.72456 92.9305 5.6827 92.9948 5.67867L95.6155 5.04143L95.7119 5.03538C95.7427 5.04105 95.7783 5.06351 95.8187 5.10275C95.8592 5.14199 95.8751 5.18467 95.8666 5.23078L95.1099 9.33468C95.893 9.2248 96.6996 9.24637 97.5296 9.39942ZM96.3152 14.5632C97.6985 14.8183 98.5291 14.1927 98.8068 12.6864C98.9485 11.9179 98.8544 11.2648 98.5244 10.7272C98.1973 10.1741 97.5803 9.81404 96.6734 9.64682C96.0894 9.53913 95.5498 9.53499 95.0546 9.63441L94.655 11.8016C94.3631 13.3848 94.9165 14.3053 96.3152 14.5632Z" fill="black"/>
<path d="M112.043 16.8942C112.724 17.2109 113.235 17.6516 113.575 18.2164C113.931 18.7871 114.114 19.4049 114.126 20.0697C114.151 20.7406 114.032 21.3935 113.769 22.0286C113.421 22.8657 112.914 23.5353 112.248 24.0373C111.597 24.5453 110.847 24.843 109.999 24.9304C109.144 25.0322 108.269 24.8972 107.374 24.5254C106.754 24.2675 106.231 23.9572 105.806 23.5945C105.396 23.2378 105.108 22.8726 104.941 22.4989C104.775 22.1252 104.755 21.7867 104.881 21.4836C104.965 21.2816 105.085 21.154 105.243 21.101C105.394 21.0623 105.542 21.073 105.687 21.133C105.845 21.199 105.961 21.3064 106.035 21.4555C106.123 21.6105 106.224 21.8556 106.339 22.191C106.494 22.7126 106.69 23.1578 106.926 23.5267C107.177 23.9016 107.59 24.2089 108.168 24.4488C109.048 24.8147 109.848 24.7237 110.566 24.176C111.284 23.6282 111.866 22.8204 112.309 21.7523C113.359 19.2265 112.462 17.3729 109.619 16.1914C109.561 16.1674 109.543 16.1091 109.564 16.0165C109.586 15.9239 109.64 15.8956 109.727 15.9316C111.04 16.4774 112.081 16.5797 112.849 16.2388C113.631 15.9038 114.232 15.2311 114.652 14.2208C115.036 13.2971 115.123 12.4957 114.915 11.8166C114.726 11.1291 114.206 10.6084 113.355 10.2545C112.619 9.94869 111.926 9.90608 111.275 10.1267C110.625 10.3474 109.981 10.8584 109.344 11.6597C109.338 11.6741 109.306 11.6694 109.248 11.6454C109.133 11.5974 109.094 11.5475 109.133 11.4958L111.247 8.6678C111.259 8.63894 111.294 8.6365 111.352 8.66049C111.395 8.67848 111.432 8.7109 111.463 8.75776C111.501 8.79019 111.509 8.81062 111.489 8.81905C111.412 8.92252 111.364 8.99591 111.346 9.03921C111.287 9.18354 111.278 9.30678 111.32 9.40893C111.382 9.50265 111.457 9.5675 111.544 9.60348C111.63 9.63947 111.885 9.67769 112.308 9.71815C113.097 9.77509 113.744 9.90851 114.249 10.1184C115.187 10.5082 115.799 11.0925 116.085 11.8713C116.391 12.6417 116.373 13.4382 116.031 14.2609C115.708 15.0403 115.181 15.6762 114.452 16.1687C113.737 16.6671 112.934 16.9089 112.043 16.8942Z" fill="black"/>
<path d="M125.953 25.2975C126.007 25.3293 126.021 25.3828 125.995 25.458C125.977 25.5198 125.936 25.5416 125.875 25.5233L123.002 25.2728L122.909 25.2454C122.788 25.174 122.759 24.9303 122.823 24.5143C122.908 24.0928 123.093 23.6396 123.379 23.1549C122.577 23.4079 121.811 23.5373 121.082 23.5431C120.367 23.5568 119.692 23.3773 119.059 23.0044C118.238 22.5204 117.726 21.8195 117.523 20.9017C117.328 19.9704 117.548 18.9661 118.182 17.8889C118.754 16.9193 119.482 16.2058 120.369 15.7484C121.263 15.2776 122.168 15.0492 123.085 15.0634C124.016 15.0854 124.811 15.2908 125.47 15.6796C125.834 15.8938 126.148 16.1607 126.414 16.4803C126.7 16.7943 126.923 17.1249 127.081 17.4721C127.368 17.4779 127.633 17.398 127.875 17.2326C127.897 17.227 127.93 17.2469 127.976 17.2921C128.03 17.3238 128.049 17.3531 128.033 17.3801L124.629 23.157C124.36 23.6148 124.215 23.9832 124.196 24.2621C124.198 24.5355 124.334 24.7515 124.603 24.9102C124.738 24.9896 124.915 25.0579 125.136 25.1151C125.377 25.1668 125.636 25.2196 125.913 25.2737L125.953 25.2975ZM119.978 22.7839C120.827 23.2838 122.024 23.2997 123.569 22.8317L125.95 18.7919C126.235 18.3071 126.244 17.7683 125.977 17.1753C125.717 16.5689 125.305 16.0991 124.739 15.7659C123.918 15.2819 123.03 15.2487 122.077 15.6665C121.145 16.0787 120.341 16.8571 119.667 18.0017C119.072 19.0116 118.797 19.956 118.841 20.8349C118.886 21.7137 119.265 22.3634 119.978 22.7839Z" fill="black"/>
<path d="M132.022 31.4757C132.047 31.4951 132.03 31.5416 131.972 31.6151C131.914 31.6886 131.872 31.7157 131.848 31.6963C131.566 31.4731 131.35 31.2924 131.201 31.154L130.278 30.3934L129.289 29.6405C129.108 29.5169 128.864 29.3339 128.558 29.0913C128.533 29.0719 128.55 29.0255 128.608 28.952C128.666 28.8784 128.708 28.8514 128.732 28.8708C129.1 29.1618 129.388 29.3398 129.595 29.4046C129.816 29.4792 130.018 29.4501 130.203 29.3173C130.41 29.182 130.659 28.9306 130.95 28.563L132.55 26.5411C132.041 26.1775 131.497 25.996 130.918 25.9965C130.34 25.997 129.535 26.2073 128.505 26.6275C127.601 26.9884 127.02 27.2062 126.762 27.2807C126.525 27.3527 126.352 27.345 126.242 27.2577L124.79 26.108C124.765 26.0886 124.782 26.0422 124.84 25.9687C124.898 25.8951 124.94 25.8681 124.964 25.8875C125.344 26.1882 125.736 26.3095 126.141 26.2513C126.568 26.1906 126.962 26.0836 127.322 25.9305C127.683 25.7773 127.917 25.6834 128.024 25.6486C128.577 25.4286 129.135 25.3025 129.699 25.2704C130.263 25.2382 130.762 25.3248 131.198 25.53C129.851 24.2847 129.6 23.1289 130.444 22.0628C130.91 21.4746 131.481 21.1691 132.157 21.1461C132.845 21.1329 133.532 21.3979 134.219 21.9412C134.353 22.0479 134.607 22.2688 134.98 22.6037C135.282 22.9024 135.567 23.1585 135.837 23.372L136.771 24.0812C136.94 24.1951 137.165 24.3636 137.447 24.5867C137.471 24.6061 137.454 24.6526 137.396 24.7261C137.338 24.7996 137.297 24.8267 137.272 24.8073C136.929 24.5356 136.643 24.3687 136.413 24.3064C136.205 24.2415 135.996 24.2658 135.787 24.3791C135.59 24.5021 135.346 24.7475 135.055 25.1151L131.795 29.2324C131.504 29.6 131.321 29.8939 131.247 30.1139C131.184 30.3437 131.21 30.5632 131.323 30.7726C131.446 30.9697 131.679 31.2041 132.022 31.4757ZM131.716 22.3823C131.251 22.9704 131.024 23.5586 131.037 24.1468C131.05 24.735 131.338 25.2523 131.902 25.6986C132.098 25.8538 132.387 26.0427 132.769 26.2654L134.18 24.4824C134.491 24.0903 134.682 23.7732 134.754 23.5312C134.838 23.2989 134.824 23.0781 134.71 22.8687C134.597 22.6594 134.369 22.4189 134.026 22.1472C133.156 21.4584 132.386 21.5367 131.716 22.3823Z" fill="black"/>
<path d="M142.407 29.3891C142.897 29.9808 143.204 30.6421 143.328 31.3731C143.452 32.104 143.388 32.8327 143.136 33.5592C142.884 34.2856 142.45 34.9491 141.835 35.5496C141.22 36.1501 140.541 36.5729 139.797 36.8182C139.054 37.0634 138.297 37.093 137.525 36.9069C136.765 36.7098 136.057 36.2758 135.402 35.6048C134.703 34.889 134.32 34.1383 134.252 33.3528C134.195 32.5563 134.46 31.6642 135.047 30.6766C135.634 29.6889 136.581 28.5564 137.89 27.279C140.63 24.6041 142.835 23.1827 144.506 23.015C146.188 22.8363 147.515 23.2446 148.487 24.24C149.786 25.5709 149.798 26.8586 148.523 28.1033C147.763 28.8457 146.812 29.3261 145.671 29.5445C144.53 29.7628 143.442 29.7111 142.407 29.3891ZM147.875 24.1166C146.357 22.562 143.682 23.5577 139.848 27.1036C139.979 27.2599 140.192 27.489 140.486 27.791C141.131 28.4509 141.866 28.8908 142.692 29.1107C143.53 29.3197 144.353 29.3131 145.163 29.0907C145.983 28.8574 146.696 28.446 147.299 27.8564C147.926 27.245 148.304 26.603 148.433 25.9304C148.585 25.258 148.399 24.6534 147.875 24.1166ZM136.163 35.7465C136.818 36.4176 137.516 36.7189 138.258 36.6504C138.999 36.582 139.772 36.1547 140.578 35.3686C141.685 34.2878 142.207 33.1114 142.145 31.8396C142.083 30.5678 141.446 29.3112 140.234 28.0698C139.94 27.7679 139.71 27.544 139.546 27.3984L139.177 27.7587C137.768 29.1343 136.748 30.3157 136.117 31.3029C135.497 32.2791 135.2 33.1155 135.225 33.8121C135.272 34.509 135.584 35.1538 136.163 35.7465Z" fill="black"/>
<path d="M145.288 46.7621C145.316 46.7998 145.292 46.8466 145.217 46.9023C145.141 46.958 145.09 46.967 145.062 46.9293L143.571 44.9119C143.515 44.8364 143.521 44.7255 143.587 44.5791C143.654 44.4326 143.756 44.202 143.892 43.8873C144.042 43.5632 144.231 43.0441 144.461 42.3299C144.721 41.4971 144.887 40.9074 144.962 40.561C145.058 40.2178 145.08 39.9194 145.029 39.6659C144.99 39.403 144.859 39.1207 144.636 38.8191L144.325 38.437L142.27 39.9558C141.893 40.2344 141.633 40.4748 141.491 40.677C141.361 40.8699 141.326 41.0713 141.384 41.2811C141.451 41.5036 141.619 41.797 141.888 42.1616C141.907 42.1867 141.879 42.2271 141.803 42.2829C141.728 42.3386 141.681 42.3539 141.662 42.3288C141.43 42.0145 141.255 41.7648 141.138 41.5795L140.474 40.6417L139.73 39.6752C139.588 39.5085 139.4 39.268 139.168 38.9537C139.14 38.916 139.164 38.8693 139.239 38.8136C139.315 38.7579 139.366 38.7488 139.394 38.7865C139.673 39.1636 139.904 39.4107 140.088 39.5276C140.281 39.6572 140.484 39.6821 140.697 39.6023C140.932 39.5258 141.238 39.3482 141.615 39.0696L151.401 31.8383C151.866 31.4946 152.166 31.2044 152.302 30.9678C152.438 30.7312 152.423 30.4998 152.256 30.2735C152.098 30.0598 151.781 29.8278 151.304 29.5775L151.276 29.5398C151.239 29.4895 151.243 29.4286 151.287 29.357C151.34 29.298 151.392 29.289 151.442 29.33L154.226 30.7705L154.315 30.8508C154.333 30.876 154.339 30.9104 154.333 30.9541C154.335 31.0104 154.318 31.0525 154.28 31.0803L144.664 38.1862C145.064 38.6486 145.39 39.0495 145.64 39.3889C145.78 39.5774 145.981 39.6914 146.243 39.7307C146.505 39.7701 146.83 39.763 147.218 39.7095L148.148 39.5473C148.824 39.4365 149.337 39.3682 149.687 39.3426C150.05 39.3076 150.377 39.3287 150.667 39.4058C150.966 39.4954 151.218 39.6785 151.423 39.9551C151.608 40.2065 151.69 40.4477 151.666 40.6789C151.655 40.9008 151.568 41.0721 151.404 41.1928C151.229 41.3229 151.031 41.3715 150.813 41.3387C150.594 41.3059 150.41 41.1889 150.262 40.9878C150.16 40.8495 150.095 40.6834 150.068 40.4894C150.054 40.2861 150.024 40.153 149.977 40.0902C149.875 39.9519 149.555 39.8871 149.018 39.8958C148.502 39.9078 147.942 39.9522 147.338 40.0292C146.756 40.1095 146.32 40.1111 146.03 40.034C146.116 40.2816 146.131 40.5521 146.076 40.8455C146.03 41.1516 145.904 41.6524 145.699 42.348L145.521 42.9751C145.476 43.1248 145.427 43.2683 145.373 43.4054C145.331 43.5333 145.296 43.6565 145.267 43.7751C145.021 44.5205 144.879 45.0915 144.842 45.4883C144.827 45.8883 144.976 46.3129 145.288 46.7621Z" fill="black"/>
<path d="M158.171 51.9083C158.193 51.9495 158.163 51.9925 158.081 52.0372C157.998 52.082 157.946 52.0838 157.924 52.0426C157.745 51.7129 157.489 51.4873 157.156 51.3657C156.823 51.244 156.337 51.2325 155.697 51.3311L147.437 52.4813C145.829 52.6966 144.531 52.7789 143.543 52.7284C142.549 52.6991 141.764 52.5299 141.187 52.2207C140.596 51.919 140.129 51.4522 139.786 50.8204C139.637 50.5457 139.579 50.2749 139.612 50.008C139.631 49.7486 139.764 49.5518 140.011 49.4175C140.162 49.3355 140.316 49.3233 140.472 49.381C140.628 49.4386 140.746 49.543 140.828 49.6941C140.985 49.9825 141.056 50.3089 141.04 50.6731C141.025 50.8414 141.029 50.9811 141.054 51.0922C141.073 51.2245 141.123 51.3661 141.205 51.5172C141.391 51.8606 141.718 52.1013 142.184 52.2394C142.65 52.3775 143.327 52.4281 144.214 52.391C145.108 52.3678 146.325 52.2497 147.863 52.0368L152.489 45.5229C152.922 44.8788 153.183 44.4259 153.272 44.1641C153.375 43.8949 153.355 43.6298 153.214 43.3688C153.199 43.3414 153.233 43.3052 153.315 43.2605C153.397 43.2157 153.446 43.2071 153.461 43.2346C153.618 43.523 153.726 43.7396 153.787 43.8844L154.113 44.5343L154.828 45.8005C154.946 45.9853 155.098 46.2494 155.285 46.5928C155.299 46.6203 155.266 46.6564 155.183 46.7011C155.101 46.7459 155.052 46.7545 155.037 46.7271C154.59 45.903 154.201 45.5804 153.872 45.7594C153.775 45.8116 153.687 45.895 153.607 46.0096L149.401 51.9218L155.379 50.9432C155.741 50.889 156.018 50.8097 156.21 50.7053C156.499 50.5486 156.627 50.31 156.595 49.9894C156.571 49.6825 156.395 49.2269 156.067 48.6225C156.052 48.595 156.085 48.5589 156.168 48.5142C156.25 48.4694 156.299 48.4608 156.314 48.4883C156.515 48.8591 156.661 49.1444 156.752 49.3442L157.403 50.5915L157.815 51.3014C157.896 51.4176 158.014 51.6199 158.171 51.9083Z" fill="black"/>
</svg>
