<svg width="40" height="40" viewBox="0 0 40 40" fill="none" xmlns="http://www.w3.org/2000/svg">
<g  >
<path d="M20.0001 0C8.95442 0 0.00012207 8.9543 0.00012207 20C0.00012207 31.0457 8.95442 40 20.0001 40C31.0458 40 40.0001 31.0457 40.0001 20C40.0001 8.9543 31.0458 0 20.0001 0ZM20.0001 38.1818C9.95856 38.1818 1.81833 30.0416 1.81833 20C1.81833 9.95844 9.95856 1.8182 20.0001 1.8182C30.0417 1.8182 38.1819 9.95844 38.1819 20C38.1819 30.0416 30.0417 38.1818 20.0001 38.1818Z" />
<path  class="center-path" d="M25.4547 10.9091H14.5456C12.5373 10.9091 10.9093 12.5371 10.9093 14.5454V25.4544C10.9093 27.4627 12.5373 29.0908 14.5456 29.0908H25.4547C27.463 29.0908 29.091 27.4627 29.091 25.4544V14.5455C29.0911 12.5371 27.4631 10.9091 25.4547 10.9091ZM23.6365 13.6363H26.3638V16.3636H23.6365V13.6363ZM20.0002 16.3637C22.0084 16.3637 23.6365 17.9917 23.6365 20C23.6365 22.0083 22.0084 23.6363 20.0002 23.6363C17.9919 23.6363 16.3638 22.0083 16.3638 20C16.3638 17.9917 17.9919 16.3637 20.0002 16.3637ZM27.2729 25.4545C27.2729 26.4587 26.4588 27.2727 25.4547 27.2727H14.5456C13.5415 27.2727 12.7274 26.4587 12.7274 25.4545V19.0909H14.6365C14.0906 22.0534 16.0495 24.8977 19.0121 25.4437C21.9747 25.9897 24.8189 24.0306 25.3649 21.068C25.4299 20.7159 25.4599 20.3581 25.4547 20C25.4502 19.6949 25.4198 19.3909 25.3638 19.0909H27.2728V25.4545H27.2729Z"/>
</g>
<defs>
<linearGradient id="paint0_linear_4_2278" x1="20.0001" y1="0" x2="20.0001" y2="40" gradientUnits="userSpaceOnUse">
<stop stop-color="#CDAC83"/>
<stop offset="1" stop-color="#B6946B"/>
</linearGradient>
<linearGradient id="paint1_linear_4_2278" x1="20.0002" y1="10.9091" x2="20.0002" y2="29.0908" gradientUnits="userSpaceOnUse">
<stop stop-color="#CDAC83"/>
<stop offset="1" stop-color="#B6946B"/>
</linearGradient>
<clipPath id="clip0_4_2278">
<rect width="40" height="40" fill="white" transform="translate(0.00012207)"/>
</clipPath>
</defs>
</svg>
