<svg width="40" height="40" viewBox="0 0 40 40" fill="none" xmlns="http://www.w3.org/2000/svg">
<g clip-path="url(#clip0_4_2257)">
<path d="M18.182 15.4545V17.2727H16.3638V20H18.182V28.1818H21.8183V20H24.2365L24.5456 17.2727H21.8183V15.6818C21.8183 14.9455 21.891 14.5545 23.0274 14.5545H24.5456V11.8181H22.1092C19.2002 11.8182 18.182 13.1818 18.182 15.4545Z" fill="url(#paint0_linear_4_2257)"/>
<path d="M20.0001 0C8.95442 0 0.00012207 8.9543 0.00012207 20C0.00012207 31.0457 8.95442 40 20.0001 40C31.0458 40 40.0001 31.0457 40.0001 20C40.0001 8.9543 31.0458 0 20.0001 0ZM20.0001 38.1818C9.95856 38.1818 1.81833 30.0416 1.81833 20C1.81833 9.95844 9.95856 1.8182 20.0001 1.8182C30.0417 1.8182 38.1819 9.95844 38.1819 20C38.1819 30.0416 30.0417 38.1818 20.0001 38.1818Z" fill="url(#paint1_linear_4_2257)"/>
</g>
<defs>
<linearGradient id="paint0_linear_4_2257" x1="20.4547" y1="11.8181" x2="20.4547" y2="28.1818" gradientUnits="userSpaceOnUse">
<stop stop-color="#CDAC83"/>
<stop offset="1" stop-color="#B6946B"/>
</linearGradient>
<linearGradient id="paint1_linear_4_2257" x1="20.0001" y1="0" x2="20.0001" y2="40" gradientUnits="userSpaceOnUse">
<stop stop-color="#CDAC83"/>
<stop offset="1" stop-color="#B6946B"/>
</linearGradient>
<clipPath id="clip0_4_2257">
<rect width="40" height="40" fill="white" transform="translate(0.00012207)"/>
</clipPath>
</defs>
</svg>
