<svg   style="enable-background:new 0 0 140 140;" version="1.1" viewBox="0 0 140 140"  xml:space="preserve" xmlns="http://www.w3.org/2000/svg" xmlns:xlink="http://www.w3.org/1999/xlink"><g><path  d="M70.018,8.633h-0.035l0,0c-33.828,0-61.35,27.523-61.35,61.363c0,13.422,4.33,25.869,11.684,35.971     l-7.643,22.801l23.586-7.539c9.701,6.424,21.279,10.139,33.758,10.139c33.832,0,61.35-27.531,61.35-61.369     C131.367,36.158,103.85,8.633,70.018,8.633z M105.725,95.291c-1.477,4.184-7.357,7.646-12.047,8.658     c-3.209,0.684-7.393,1.225-21.494-4.619c-18.035-7.471-29.648-25.797-30.549-26.986c-0.867-1.188-7.289-9.703-7.289-18.508     c0-8.803,4.475-13.096,6.279-14.936c1.479-1.516,3.932-2.197,6.275-2.197c0.76,0,1.441,0.031,2.057,0.066     c1.803,0.074,2.705,0.186,3.895,3.033c1.48,3.57,5.088,12.373,5.52,13.275c0.428,0.9,0.863,2.131,0.25,3.318     c-0.574,1.227-1.082,1.77-1.982,2.816c-0.902,1.045-1.77,1.838-2.668,2.959c-0.83,0.973-1.77,2.021-0.721,3.822     c1.049,1.77,4.65,7.648,9.955,12.373c6.85,6.098,12.402,8.047,14.389,8.877c1.477,0.615,3.246,0.467,4.328-0.686     c1.373-1.48,3.066-3.934,4.797-6.348c1.225-1.734,2.777-1.951,4.396-1.338c1.66,0.576,10.428,4.906,12.23,5.809     c1.801,0.902,2.99,1.336,3.426,2.092C107.205,87.535,107.205,91.104,105.725,95.291z"/></g></svg> 